<svg width="33" height="34" viewBox="0 0 33 34" fill="none" xmlns="http://www.w3.org/2000/svg">
<rect y="0.691406" width="33" height="33" rx="4" fill="#F5971E"/>
<path d="M22.79 14.6914H15.21C14.3587 14.6914 13.5422 15.0296 12.9402 15.6316C12.3382 16.2336 12 17.0501 12 17.9014V25.4814C12 26.3328 12.3382 27.1492 12.9402 27.7512C13.5422 28.3532 14.3587 28.6914 15.21 28.6914H22.79C23.6413 28.6914 24.4578 28.3532 25.0598 27.7512C25.6618 27.1492 26 26.3328 26 25.4814V17.9014C26 17.0501 25.6618 16.2336 25.0598 15.6316C24.4578 15.0296 23.6413 14.6914 22.79 14.6914ZM24 25.4814C24 25.6403 23.9687 25.7976 23.9079 25.9445C23.8471 26.0913 23.758 26.2246 23.6456 26.337C23.5332 26.4494 23.3998 26.5385 23.253 26.5993C23.1062 26.6601 22.9489 26.6914 22.79 26.6914H15.21C15.0511 26.6914 14.8938 26.6601 14.747 26.5993C14.6001 26.5385 14.4668 26.4494 14.3544 26.337C14.242 26.2246 14.1529 26.0913 14.0921 25.9445C14.0313 25.7976 14 25.6403 14 25.4814V17.9014C14 17.5805 14.1275 17.2727 14.3544 17.0458C14.5813 16.8189 14.8891 16.6914 15.21 16.6914H22.79C23.1109 16.6914 23.4187 16.8189 23.6456 17.0458C23.8725 17.2727 24 17.5805 24 17.9014V25.4814Z" fill="white"/>
<path d="M10.3104 7.69141H17.6904C18.0378 7.69141 18.371 7.82942 18.6167 8.0751C18.8624 8.32077 19.0004 8.65397 19.0004 9.00141V13.6914H21.0004V9.00141C21.0004 8.12354 20.6517 7.28163 20.0309 6.66088C19.4102 6.04014 18.5683 5.69141 17.6904 5.69141H10.3104C9.43252 5.69141 8.59061 6.04014 7.96987 6.66088C7.34912 7.28163 7.00039 8.12354 7.00039 9.00141V16.9414C6.99377 17.3695 7.07156 17.7948 7.2293 18.1928C7.38705 18.5909 7.62167 18.954 7.91975 19.2613C8.21784 19.5687 8.57355 19.8143 8.96659 19.9842C9.35962 20.1541 9.78227 20.2449 10.2104 20.2514V18.2514C10.0449 18.245 9.88227 18.206 9.73185 18.1366C9.58143 18.0673 9.44616 17.969 9.33378 17.8473C9.22139 17.7256 9.1341 17.583 9.0769 17.4275C9.01969 17.2721 8.99369 17.1069 9.00039 16.9414V9.00141C9.00039 8.65397 9.13841 8.32077 9.38408 8.0751C9.62975 7.82942 9.96296 7.69141 10.3104 7.69141Z" fill="white"/>
</svg>
