<svg width="20" height="19" viewBox="0 0 20 19" fill="none" xmlns="http://www.w3.org/2000/svg">
<path d="M9.98715 18.4611C10.2083 18.4611 10.4204 18.3727 10.5768 18.2153C10.7331 18.058 10.821 17.8445 10.821 17.622V8.73944L11.8987 9.82406C12.0552 9.98152 12.2674 10.07 12.4886 10.07C12.7099 10.07 12.9221 9.98152 13.0786 9.82406C13.235 9.6666 13.3229 9.45303 13.3229 9.23035C13.3229 9.00767 13.235 8.7941 13.0786 8.63664L10.5771 6.11916C10.4996 6.04114 10.4077 5.97924 10.3065 5.93701C10.2052 5.89478 10.0967 5.87305 9.98715 5.87305C9.87757 5.87305 9.76907 5.89478 9.66784 5.93701C9.56662 5.97924 9.47466 6.04114 9.39722 6.11916L6.89573 8.63664C6.73927 8.7941 6.65137 9.00767 6.65137 9.23035C6.65137 9.45303 6.73927 9.6666 6.89573 9.82406C7.05219 9.98152 7.26439 10.07 7.48566 10.07C7.70693 10.07 7.91914 9.98152 8.0756 9.82406L9.15332 8.73944V17.622C9.15332 17.8445 9.24117 18.058 9.39754 18.2153C9.55392 18.3727 9.766 18.4611 9.98715 18.4611Z" fill="#F5971E"/>
<path d="M15.8112 4.26294C15.723 3.10311 15.2028 2.0196 14.3548 1.2292C13.5068 0.438787 12.3935 -0.000224057 11.2377 8.57865e-08C9.8035 8.57865e-08 8.69867 0.54965 7.87527 1.67832H7.06854C5.86264 1.67822 4.70522 2.15612 3.84689 3.00856C2.98855 3.86099 2.49837 5.01936 2.48247 6.23287C1.60966 6.62145 0.895744 7.29965 0.459967 8.15419C0.0241904 9.00873 -0.107063 9.98787 0.0881277 10.9281C0.283319 11.8683 0.793137 12.7126 1.53243 13.3201C2.27173 13.9276 3.19574 14.2614 4.15013 14.2657H6.65162C6.87277 14.2657 7.08485 14.1773 7.24123 14.0199C7.3976 13.8626 7.48545 13.6491 7.48545 13.4266C7.48545 13.204 7.3976 12.9906 7.24123 12.8332C7.08485 12.6758 6.87277 12.5874 6.65162 12.5874H4.15013C3.54442 12.5782 2.9626 12.3482 2.5127 11.9399C2.0628 11.5317 1.77538 10.973 1.70382 10.3676C1.63225 9.76223 1.78141 9.15129 2.12358 8.64821C2.46576 8.14513 2.9777 7.78411 3.56437 7.63217C3.77094 7.56581 3.9473 7.42762 4.06189 7.24235C4.17647 7.05708 4.22179 6.83681 4.18974 6.62098C4.169 6.51295 4.15576 6.40359 4.15013 6.29371C4.15013 5.51475 4.45761 4.7677 5.00491 4.21689C5.55222 3.66608 6.29453 3.35664 7.06854 3.35664H8.31928C8.46248 3.35676 8.6033 3.31977 8.72816 3.24922C8.85303 3.17867 8.95774 3.07694 9.0322 2.95385C9.57002 2.06014 10.2329 1.67832 11.2377 1.67832C12.0117 1.67832 12.754 1.98776 13.3013 2.53857C13.8486 3.08937 14.1561 3.83643 14.1561 4.61538V5.03496C14.1561 5.25752 14.2439 5.47097 14.4003 5.62834C14.5567 5.78571 14.7688 5.87413 14.9899 5.87413C15.8745 5.87413 16.7228 6.22777 17.3483 6.85726C17.9738 7.48676 18.3252 8.34053 18.3252 9.23077C18.3252 10.121 17.9738 10.9748 17.3483 11.6043C16.7228 12.2338 15.8745 12.5874 14.9899 12.5874H13.3223C13.1011 12.5874 12.889 12.6758 12.7327 12.8332C12.5763 12.9906 12.4884 13.204 12.4884 13.4266C12.4884 13.6491 12.5763 13.8626 12.7327 14.0199C12.889 14.1773 13.1011 14.2657 13.3223 14.2657H14.9899C16.2467 14.2675 17.4581 13.7932 18.3832 12.9372C19.3084 12.0811 19.8795 10.9059 19.983 9.64542C20.0865 8.38491 19.7148 7.13136 18.9418 6.13407C18.1689 5.13677 17.0513 4.46878 15.8112 4.26294Z" fill="#F5971E"/>
</svg>
