<svg width="23" height="20" viewBox="0 0 23 20" fill="none" xmlns="http://www.w3.org/2000/svg">
<path d="M16.4617 15.3901C16.2078 15.367 15.9769 15.4363 15.7923 15.5979C14.4765 16.7059 12.7913 17.3292 11.0831 17.3292C7.04341 17.3292 3.76548 14.0513 3.76548 10.0115V9.57295H4.75809C5.05819 9.57295 5.31211 9.41136 5.4737 9.15744C5.6122 8.90351 5.6122 8.58033 5.45061 8.34949L3.53464 5.37165C3.39613 5.14081 3.14221 5.02539 2.8652 5.02539C2.58819 5.02539 2.33427 5.16389 2.19576 5.37165L0.233618 8.34949C0.07203 8.60342 0.0720301 8.90351 0.210534 9.15744C0.349039 9.41136 0.626047 9.57295 0.92614 9.57295H1.91875V10.0115C1.91875 15.067 6.02772 19.1759 11.1062 19.1759C13.2761 19.1759 15.3768 18.4141 17.0388 17.006C17.4312 16.6828 17.4774 16.0826 17.1542 15.6902C16.9234 15.5286 16.7156 15.3901 16.4617 15.3901Z" fill="#F5971E"/>
<path d="M21.9331 10.8658C21.7946 10.6119 21.5176 10.4503 21.2175 10.4503H20.2249V10.0117C20.2249 4.95626 16.116 0.824219 11.0375 0.824219C8.86757 0.824219 6.76692 1.58599 5.10487 2.99412C4.71244 3.3173 4.66627 3.91748 4.98945 4.30991C5.31263 4.70234 5.91281 4.74851 6.30524 4.42533C7.62103 3.3173 9.30617 2.69403 11.0144 2.69403C15.0541 2.69403 18.332 5.97196 18.332 10.0117V10.4272H17.3394C17.0393 10.4272 16.7854 10.5888 16.6238 10.8427C16.4853 11.0966 16.4853 11.4198 16.6469 11.6506L18.5629 14.6285C18.7014 14.8593 18.9553 14.9978 19.2323 14.9978C19.5093 14.9978 19.7632 14.8593 19.9017 14.6285L21.8177 11.6506C22.0486 11.4198 22.0716 11.1197 21.9331 10.8658Z" fill="#F5971E"/>
</svg>
