<svg width="57" height="57" viewBox="0 0 57 57" fill="none" xmlns="http://www.w3.org/2000/svg">
<circle cx="28.9707" cy="28.4414" r="28" fill="#F3F8FF"/>
<path d="M43.8628 32.4089C43.7578 32.0088 43.5742 31.6336 43.3227 31.3052C43.0713 30.9767 42.757 30.7016 42.3982 30.4958C42.042 30.2888 41.7462 29.9921 41.5402 29.6353C41.3342 29.2785 41.2252 28.874 41.2241 28.4621V28.4202C41.2252 28.0082 41.3343 27.6038 41.5406 27.2471C41.7468 26.8905 42.0429 26.5941 42.3994 26.3876C43.1201 25.9703 43.6459 25.2842 43.8615 24.4798C44.0771 23.6754 43.9649 22.8183 43.5496 22.0965L41.908 19.2485C41.4909 18.5272 40.8045 18.001 39.9996 17.7855C39.1948 17.5701 38.3373 17.683 37.6156 18.0995L37.5056 18.1592C37.1805 18.3489 36.8108 18.4489 36.4343 18.4489C36.0579 18.4489 35.6882 18.3489 35.363 18.1592L35.1239 18.0194C34.7971 17.8336 34.5254 17.5643 34.3368 17.2391C34.1481 16.9139 34.0492 16.5445 34.0502 16.1685V16.0394C34.049 15.2067 33.7176 14.4086 33.1289 13.8198C32.5401 13.231 31.7419 12.8997 30.9093 12.8984H27.6261C26.7934 12.8997 25.9953 13.231 25.4065 13.8198C24.8177 14.4086 24.4864 15.2067 24.4851 16.0394V16.1685C24.4876 16.5451 24.3897 16.9156 24.2017 17.2419C24.0136 17.5682 23.7421 17.8386 23.415 18.0253L23.1699 18.1592C22.8449 18.3492 22.4751 18.4493 22.0986 18.4493C21.7221 18.4493 21.3524 18.3492 21.0274 18.1592L20.915 18.0935C20.1931 17.6781 19.336 17.566 18.5316 17.7816C17.7272 17.9972 17.0411 18.523 16.6238 19.2437L14.9858 22.0917C14.5704 22.8135 14.4583 23.6706 14.6739 24.475C14.8895 25.2794 15.4153 25.9655 16.136 26.3828C16.4942 26.5942 16.7911 26.8953 16.9973 27.2565C17.2036 27.6177 17.3121 28.0264 17.3121 28.4423C17.3121 28.8582 17.2036 29.267 16.9973 29.6281C16.7911 29.9893 16.4942 30.2904 16.136 30.5018C15.7786 30.7079 15.4652 30.9824 15.2139 31.3096C14.9627 31.6369 14.7783 32.0105 14.6715 32.409C14.5647 32.8075 14.5375 33.2232 14.5914 33.6323C14.6453 34.0413 14.7793 34.4357 14.9858 34.793L16.564 37.5286C16.9986 38.2784 17.7127 38.8253 18.5498 39.0494C19.3869 39.2735 20.2787 39.1566 21.0297 38.7242C21.3561 38.5328 21.7275 38.4319 22.1058 38.4319C22.4841 38.4319 22.8556 38.5328 23.1819 38.7242L23.421 38.8569C23.7473 39.0447 24.0177 39.3158 24.2047 39.6425C24.3917 39.9692 24.4885 40.3397 24.4851 40.7161C24.4864 41.5829 24.8314 42.4138 25.4444 43.0266C26.0574 43.6394 26.8884 43.9841 27.7552 43.985H30.7802C31.6469 43.9841 32.478 43.6394 33.091 43.0266C33.704 42.4138 34.049 41.5829 34.0502 40.7161C34.0477 40.3394 34.1455 39.9687 34.3336 39.6422C34.5216 39.3156 34.7932 39.045 35.1203 38.8581L35.3595 38.7194C35.6848 38.5295 36.0547 38.4294 36.4314 38.4294C36.808 38.4294 37.1779 38.5295 37.5032 38.7194C38.2541 39.1517 39.1457 39.2687 39.9827 39.0445C40.8196 38.8204 41.5335 38.2735 41.9678 37.5238L43.5448 34.793C43.7529 34.4364 43.8882 34.042 43.9428 33.6328C43.9974 33.2235 43.9702 32.8075 43.8628 32.4089ZM41.4716 33.5973L39.9005 36.3329C39.7836 36.533 39.5924 36.6789 39.3685 36.7389C39.1447 36.7989 38.9062 36.7682 38.7049 36.6534C38.0143 36.2536 37.2302 36.0436 36.4322 36.0449C35.6342 36.0462 34.8508 36.2586 34.1614 36.6605L33.9594 36.7801C33.2612 37.1731 32.6801 37.7447 32.2759 38.4364C31.8716 39.1281 31.6587 39.915 31.659 40.7161C31.6586 40.949 31.5659 41.1722 31.4011 41.3368C31.2364 41.5013 31.013 41.5937 30.7802 41.5937H27.7552C27.5223 41.5937 27.299 41.5013 27.1342 41.3368C26.9695 41.1722 26.8767 40.949 26.8764 40.7161C26.8792 39.9142 26.6684 39.1259 26.2656 38.4325C25.8627 37.739 25.2824 37.1654 24.5844 36.7705L24.3919 36.6593C23.7008 36.2504 22.9124 36.0353 22.1094 36.0364C21.3118 36.0372 20.5285 36.2475 19.8377 36.6462C19.6364 36.761 19.3979 36.7917 19.174 36.7317C18.9502 36.6717 18.759 36.5259 18.6421 36.3258L17.0578 33.5973C17.0084 33.512 16.9763 33.4178 16.9633 33.3201C16.9504 33.2224 16.9569 33.1231 16.9824 33.0278C17.008 32.9326 17.0521 32.8434 17.1122 32.7653C17.1724 32.6872 17.2473 32.6217 17.3328 32.5727C18.0548 32.1515 18.6538 31.5484 19.07 30.8236C19.4863 30.0988 19.7054 29.2776 19.7054 28.4417C19.7054 27.6059 19.4863 26.7846 19.07 26.0598C18.6538 25.335 18.0548 24.732 17.3328 24.3108C17.2473 24.2621 17.1724 24.1969 17.1124 24.1188C17.0525 24.0408 17.0087 23.9516 16.9837 23.8565C16.9581 23.7613 16.9515 23.662 16.9644 23.5644C16.9774 23.4667 17.0095 23.3725 17.059 23.2873L18.6994 20.4441C18.7485 20.3589 18.8139 20.2842 18.8918 20.2243C18.9697 20.1644 19.0587 20.1204 19.1536 20.0949C19.2485 20.0693 19.3476 20.0627 19.4451 20.0755C19.5425 20.0882 19.6365 20.12 19.7217 20.1691L19.8341 20.2337C20.5272 20.6351 21.3143 20.8454 22.1152 20.8433C22.9161 20.8412 23.7021 20.6267 24.3931 20.2217L24.5844 20.1105C25.2821 19.7162 25.8621 19.1432 26.265 18.4503C26.6678 17.7575 26.8788 16.9699 26.8764 16.1685V16.0394C26.8764 15.8406 26.9554 15.6499 27.096 15.5093C27.2366 15.3687 27.4273 15.2897 27.6261 15.2897H30.9093C31.1081 15.2897 31.2988 15.3687 31.4394 15.5093C31.58 15.6499 31.659 15.8406 31.659 16.0394V16.1685C31.6563 16.9705 31.8672 17.7587 32.27 18.4521C32.6728 19.1455 33.253 19.7192 33.951 20.1141L34.1435 20.2241C34.8345 20.6292 35.6206 20.8436 36.4215 20.8455C37.2225 20.8474 38.0096 20.6367 38.7025 20.2349L38.8125 20.1727C38.8976 20.1234 38.9917 20.0913 39.0892 20.0784C39.1868 20.0655 39.2859 20.0719 39.381 20.0974C39.476 20.1228 39.5651 20.1667 39.6432 20.2266C39.7213 20.2865 39.7868 20.3613 39.8359 20.4465L41.4775 23.2897C41.5271 23.3749 41.5592 23.4691 41.5721 23.5668C41.5851 23.6644 41.5785 23.7637 41.5529 23.8588C41.5279 23.954 41.4841 24.0432 41.4241 24.1212C41.3642 24.1993 41.2893 24.2645 41.2037 24.3132C40.4835 24.7305 39.8855 25.3296 39.4694 26.0506C39.0534 26.7715 38.8338 27.589 38.8328 28.4214V28.4609C38.8331 29.2939 39.0523 30.1122 39.4684 30.8338C39.8845 31.5555 40.4829 32.1551 41.2037 32.5727C41.289 32.6219 41.3638 32.6875 41.4237 32.7657C41.4836 32.8439 41.5275 32.9331 41.553 33.0282C41.5784 33.1234 41.5848 33.2226 41.5719 33.3203C41.5589 33.4179 41.5269 33.5121 41.4775 33.5973H41.4716Z" fill="#1A8EF9"/>
<path d="M29.2673 22.4629C28.0849 22.4629 26.9291 22.8135 25.946 23.4704C24.9628 24.1273 24.1966 25.061 23.7441 26.1533C23.2917 27.2457 23.1733 28.4477 23.4039 29.6074C23.6346 30.767 24.204 31.8322 25.04 32.6683C25.8761 33.5044 26.9413 34.0737 28.101 34.3044C29.2606 34.5351 30.4626 34.4167 31.555 33.9642C32.6474 33.5117 33.581 32.7455 34.2379 31.7624C34.8948 30.7793 35.2454 29.6235 35.2454 28.4411C35.2435 26.8561 34.6131 25.3367 33.4924 24.216C32.3717 23.0952 30.8522 22.4648 29.2673 22.4629ZM29.2673 32.028C28.5578 32.028 27.8643 31.8176 27.2745 31.4235C26.6846 31.0294 26.2249 30.4692 25.9534 29.8137C25.6819 29.1583 25.6109 28.4371 25.7493 27.7413C25.8877 27.0455 26.2293 26.4064 26.7309 25.9047C27.2326 25.4031 27.8717 25.0615 28.5675 24.9231C29.2633 24.7847 29.9845 24.8557 30.6399 25.1272C31.2953 25.3987 31.8555 25.8584 32.2497 26.4483C32.6438 27.0382 32.8542 27.7317 32.8542 28.4411C32.8542 29.3924 32.4763 30.3047 31.8036 30.9774C31.1309 31.6501 30.2186 32.028 29.2673 32.028Z" fill="#1A8EF9"/>
</svg>
