<svg width="57" height="57" viewBox="0 0 57 57" fill="none" xmlns="http://www.w3.org/2000/svg">
<circle cx="28.9707" cy="28.4414" r="28" fill="#E54644" fill-opacity="0.05"/>
<path d="M19.5798 37.8565C19.9539 38.231 20.4613 38.4414 20.9903 38.4414C21.5193 38.4414 22.0267 38.231 22.4008 37.8565L28.9707 31.2785L35.5406 37.8565C35.9168 38.2204 36.4208 38.4218 36.9439 38.4172C37.467 38.4127 37.9674 38.2026 38.3373 37.8322C38.7072 37.4618 38.917 36.9608 38.9216 36.4371C38.9261 35.9133 38.725 35.4087 38.3616 35.0319L31.7918 28.4539L38.3616 21.8758C38.5522 21.6916 38.7042 21.4711 38.8087 21.2274C38.9133 20.9837 38.9683 20.7216 38.9706 20.4564C38.9729 20.1911 38.9224 19.9281 38.8221 19.6826C38.7218 19.4371 38.5737 19.214 38.3864 19.0265C38.199 18.8389 37.9763 18.6906 37.7311 18.5902C37.4859 18.4897 37.2232 18.4392 36.9583 18.4415C36.6934 18.4438 36.4316 18.4989 36.1882 18.6036C35.9447 18.7083 35.7246 18.8605 35.5406 19.0512L28.9707 25.6293L22.4008 19.0512C22.2168 18.8605 21.9967 18.7083 21.7532 18.6036C21.5098 18.4989 21.248 18.4438 20.9831 18.4415C20.7182 18.4392 20.4555 18.4897 20.2103 18.5902C19.9651 18.6906 19.7424 18.8389 19.5551 19.0265C19.3677 19.214 19.2196 19.4371 19.1193 19.6826C19.019 19.9281 18.9685 20.1911 18.9708 20.4564C18.9731 20.7216 19.0281 20.9837 19.1327 21.2274C19.2372 21.4711 19.3892 21.6916 19.5798 21.8758L26.1496 28.4539L19.5798 35.0319C19.2058 35.4066 18.9956 35.9146 18.9956 36.4442C18.9956 36.9739 19.2058 37.4819 19.5798 37.8565Z" fill="#F5381E"/>
</svg>
