<svg width="22" height="18" viewBox="0 0 22 18" fill="none" xmlns="http://www.w3.org/2000/svg">
<path opacity="0.8" d="M8.6267 15.4414L5.7467 11.3914C5.4227 11.4274 5.0867 11.4454 4.7387 11.4454H1.3547V15.4414H0.0227033V2.84141H4.7387C6.3467 2.84141 7.6067 3.22541 8.5187 3.99341C9.4307 4.76141 9.8867 5.81741 9.8867 7.16141C9.8867 8.14541 9.6347 8.97941 9.1307 9.66341C8.6387 10.3354 7.9307 10.8214 7.0067 11.1214L10.0847 15.4414H8.6267ZM4.7027 10.3114C5.9507 10.3114 6.9047 10.0354 7.5647 9.48341C8.2247 8.93141 8.5547 8.15741 8.5547 7.16141C8.5547 6.14141 8.2247 5.36141 7.5647 4.82141C6.9047 4.26941 5.9507 3.99341 4.7027 3.99341H1.3547V10.3114H4.7027ZM21.5025 12.1114C21.5025 13.0354 21.1485 13.8214 20.4405 14.4694C19.7325 15.1054 18.6945 15.4594 17.3265 15.5314V17.6014H16.4265V15.5494C15.5505 15.5014 14.7225 15.3334 13.9425 15.0454C13.1745 14.7454 12.5685 14.3674 12.1245 13.9114L12.6465 12.8854C13.0665 13.2934 13.6125 13.6354 14.2845 13.9114C14.9685 14.1874 15.6825 14.3494 16.4265 14.3974V9.66341C15.5985 9.45941 14.9085 9.24341 14.3565 9.01541C13.8045 8.77541 13.3425 8.43341 12.9705 7.98941C12.6105 7.53341 12.4305 6.93341 12.4305 6.18941C12.4305 5.26541 12.7665 4.49141 13.4385 3.86741C14.1105 3.23141 15.1065 2.85941 16.4265 2.75141V0.681405H17.3265V2.73341C18.0105 2.75741 18.6705 2.87141 19.3065 3.07541C19.9545 3.26741 20.5125 3.52541 20.9805 3.84941L20.5305 4.91141C20.0385 4.59941 19.5165 4.35341 18.9645 4.17341C18.4125 3.99341 17.8665 3.89141 17.3265 3.86741V8.63741C18.2145 8.85341 18.9405 9.07541 19.5045 9.30341C20.0685 9.51941 20.5425 9.85541 20.9265 10.3114C21.3105 10.7674 21.5025 11.3674 21.5025 12.1114ZM13.7445 6.15341C13.7445 6.77741 13.9725 7.25141 14.4285 7.57541C14.8965 7.89941 15.5625 8.17541 16.4265 8.40341V3.90341C15.5385 3.97541 14.8665 4.22141 14.4105 4.64141C13.9665 5.04941 13.7445 5.55341 13.7445 6.15341ZM17.3265 14.3974C18.2745 14.3254 18.9885 14.0914 19.4685 13.6954C19.9485 13.2994 20.1885 12.7954 20.1885 12.1834C20.1885 11.5354 19.9425 11.0494 19.4505 10.7254C18.9585 10.4014 18.2505 10.1254 17.3265 9.89741V14.3974Z" fill="white"/>
</svg>
