<svg width="57" height="57" viewBox="0 0 57 57" fill="none" xmlns="http://www.w3.org/2000/svg">
<circle cx="28.9707" cy="28.4414" r="28" fill="#F9FFEE"/>
<path d="M43.5259 13.7804C43.1873 13.4414 42.5948 13.3567 42.1715 13.5262L14.7455 23.9499C14.2376 24.2041 13.899 24.7126 13.9837 25.2211C13.9837 25.7295 14.3223 26.1533 14.8301 26.3228L26.8502 30.4753L31.1673 42.5939C31.3365 43.1024 31.8444 43.4414 32.3523 43.4414C32.9449 43.4414 33.4528 43.0177 33.622 42.5092L43.9491 15.1363C44.0338 14.6278 43.8645 14.1194 43.5259 13.7804ZM32.3523 40.9838L28.2892 29.7126C28.1199 29.3736 27.866 29.0346 27.5274 28.9499L16.3538 25.1363L41.9176 15.4753L32.3523 40.9838ZM30.4901 26.916C30.1515 26.577 30.1515 26.0685 30.4901 25.7295L34.6378 21.577C34.9764 21.238 35.4843 21.238 35.8229 21.577C36.1615 21.916 36.1615 22.4245 35.8229 22.7634L31.6751 26.916C31.5058 27.0855 31.2519 27.1702 31.0826 27.1702C30.9133 27.1702 30.6594 27.0007 30.4901 26.916Z" fill="#93C83D"/>
</svg>
