<svg width="32" height="32" viewBox="0 0 32 32" fill="none" xmlns="http://www.w3.org/2000/svg">
<circle cx="16.0531" cy="15.7155" r="15.644" fill="#F3F8FF"/>
<path d="M19.5235 10.1316L19.5238 10.1314C19.5461 10.1092 19.5727 10.0917 19.6018 10.0798C19.6309 10.0679 19.662 10.0618 19.6934 10.062M19.5235 10.1316L20.2317 10.1458L20.2317 10.062M19.5235 10.1316L18.9015 10.7536L19.5235 10.1316ZM19.6934 10.062C19.6935 10.062 19.6936 10.062 19.6937 10.062L19.6932 10.1458L19.6932 10.062L19.6934 10.062ZM19.6934 10.062L20.2317 10.062M20.2317 10.062L20.3155 10.062L20.3155 7.03466C20.3155 6.9934 20.3318 6.95384 20.361 6.92466C20.3902 6.89549 20.4298 6.8791 20.471 6.8791C20.5123 6.8791 20.5518 6.89549 20.581 6.92466C20.6102 6.95384 20.6266 6.9934 20.6266 7.03466L20.6266 10.062L20.7104 10.062M20.2317 10.062L20.2317 7.03466C20.2317 6.97117 20.2569 6.91029 20.3018 6.8654C20.3467 6.82051 20.4075 6.79529 20.471 6.79529C20.5345 6.79529 20.5954 6.82051 20.6403 6.8654C20.6852 6.91029 20.7104 6.97117 20.7104 7.03466L20.7104 10.062M20.7104 10.062L20.7104 10.1458L21.2488 10.1458C21.2901 10.1458 21.3296 10.1622 21.3588 10.1913C21.388 10.2205 21.4044 10.2601 21.4044 10.3013L21.4044 11.5458C21.4044 11.5871 21.388 11.6266 21.3588 11.6558C21.3296 11.685 21.2901 11.7014 21.2488 11.7014L20.7104 11.7014L20.7104 11.7852M20.7104 10.062L21.2488 10.062C21.3123 10.062 21.3732 10.0872 21.4181 10.1321C21.4629 10.177 21.4882 10.2379 21.4882 10.3013L21.4882 11.5458C21.4882 11.6093 21.4629 11.6702 21.4181 11.7151C21.3732 11.7599 21.3123 11.7852 21.2488 11.7852L20.7104 11.7852M20.7104 11.7852L20.6266 11.7852L19.5828 11.6562C19.5973 11.6707 19.6146 11.6821 19.6335 11.6898C19.6525 11.6975 19.6728 11.7015 19.6932 11.7014L19.6932 11.7852L19.6934 11.7852L20.2317 11.7852L20.2317 16.6792C20.2317 16.7426 20.2569 16.8035 20.3018 16.8484C20.3467 16.8933 20.4075 16.9185 20.471 16.9185C20.5345 16.9185 20.5954 16.8933 20.6403 16.8484C20.6852 16.8035 20.7104 16.7426 20.7104 16.6792L20.7104 11.7852ZM21.0094 11.3064L19.7917 11.3064L19.4089 10.9236L19.7917 10.5407L21.0094 10.5407L21.0094 11.3064Z" fill="#1A8EF9" stroke="#1A8EF9" stroke-width="0.167614"/>
<path d="M12.6238 7.52759C10.058 7.52759 7.96935 9.61625 7.96935 12.1821C7.96935 14.7479 10.058 16.8354 12.6238 16.8354C15.1897 16.8354 17.2772 14.7479 17.2772 12.1821C17.2772 9.61625 15.1897 7.52759 12.6238 7.52759ZM12.2553 8.28076V9.26929C11.9177 9.32071 11.6218 9.44816 11.3988 9.67114C11.0979 9.97205 10.9694 10.4052 10.9694 10.895V10.8991L10.9705 10.9025C10.9792 11.3913 11.1109 11.8207 11.4103 12.1201C11.631 12.3409 11.9235 12.4681 12.2553 12.5202V14.3457C12.1052 14.309 11.9949 14.2507 11.9189 14.1747C11.7915 14.0473 11.7042 13.8368 11.7042 13.4674C11.7049 13.4187 11.6959 13.3704 11.6777 13.3252C11.6596 13.28 11.6326 13.2389 11.5984 13.2042C11.5643 13.1696 11.5235 13.142 11.4786 13.1232C11.4337 13.1045 11.3855 13.0948 11.3368 13.0948C11.2881 13.0948 11.2399 13.1045 11.195 13.1232C11.1501 13.142 11.1093 13.1696 11.0751 13.2042C11.041 13.2389 11.014 13.28 10.9959 13.3252C10.9777 13.3704 10.9687 13.4187 10.9694 13.4674C10.9694 13.9587 11.0975 14.3929 11.3988 14.6942C11.6217 14.917 11.9179 15.0444 12.2553 15.0949V16.0386V16.0823C10.2604 15.897 8.70414 14.2263 8.70414 12.1821C8.70414 10.1379 10.2604 8.46607 12.2553 8.28076ZM12.9901 8.28076C14.986 8.46501 16.5424 10.1371 16.5424 12.1821C16.5424 14.2271 14.986 15.8981 12.9901 16.0823V16.0386V15.0926C13.3294 15.0406 13.6264 14.9127 13.85 14.689C14.151 14.3881 14.278 13.9544 14.276 13.4657V13.4634V13.4617C14.2675 12.9729 14.1357 12.5423 13.8363 12.2429C13.6152 12.0219 13.3227 11.8938 12.9901 11.8417V10.0196C13.1406 10.0569 13.2515 10.1151 13.3276 10.1912C13.4554 10.319 13.5412 10.5276 13.5412 10.895C13.5405 10.9437 13.5495 10.9921 13.5677 11.0372C13.5858 11.0824 13.6128 11.1235 13.6469 11.1582C13.6811 11.1929 13.7219 11.2204 13.7668 11.2392C13.8117 11.258 13.8599 11.2677 13.9086 11.2677C13.9573 11.2677 14.0055 11.258 14.0504 11.2392C14.0953 11.2204 14.1361 11.1929 14.1702 11.1582C14.2044 11.1235 14.2314 11.0824 14.2495 11.0372C14.2677 10.9921 14.2767 10.9437 14.276 10.895C14.276 10.4052 14.1487 9.97205 13.8477 9.67114C13.6246 9.44803 13.3281 9.32065 12.9901 9.26929V8.28076ZM12.2553 10.0196V11.7699C12.1123 11.7329 12.0054 11.6756 11.9298 11.6C11.8011 11.4712 11.7125 11.2574 11.7053 10.8916C11.7062 10.5276 11.7918 10.3183 11.9189 10.1912C11.9949 10.1152 12.1055 10.057 12.2553 10.0196ZM12.9901 12.5925C13.1338 12.6298 13.241 12.6873 13.3167 12.763C13.4456 12.8919 13.5349 13.105 13.5418 13.4714C13.5427 13.8347 13.4578 14.0422 13.3305 14.1695C13.2542 14.2458 13.1421 14.3047 12.9901 14.3423V12.5925ZM17.8444 18.3911C17.2715 18.3911 16.7541 18.6637 16.272 19.0249C15.8459 19.3442 15.4382 19.7454 15.0326 20.1501C13.33 19.5933 12.1983 19.2953 11.5148 19.2953H8.16051C6.76647 19.2953 6.76324 21.8384 8.16051 21.8384H10.6112C10.7308 21.8384 11.3669 22.0331 12.2564 22.4779C13.1459 22.9226 14.3456 23.5972 15.8466 24.4986C15.8921 24.5259 15.9429 24.5431 15.9956 24.549C16.0483 24.5548 16.1017 24.5492 16.152 24.5325L18.8076 23.6467H20.1888V24.1834C20.1888 24.2809 20.2276 24.3743 20.2965 24.4432C20.3653 24.5121 20.4588 24.5508 20.5562 24.5508H22.3645C22.462 24.5508 22.5554 24.5121 22.6243 24.4432C22.6932 24.3743 22.7319 24.2809 22.7319 24.1834V23.6467H24.6252C24.7226 23.6467 24.8161 23.608 24.885 23.5391C24.9539 23.4702 24.9926 23.3767 24.9926 23.2793V19.6627C24.9926 19.5652 24.9539 19.4718 24.885 19.4029C24.8161 19.334 24.7226 19.2953 24.6252 19.2953H22.7319V18.7585C22.7319 18.6611 22.6932 18.5677 22.6243 18.4988C22.5554 18.4299 22.462 18.3911 22.3645 18.3911H20.5562C20.4588 18.3911 20.3653 18.4299 20.2965 18.4988C20.2276 18.5677 20.1888 18.6611 20.1888 18.7585V19.2953H19.768C19.1617 18.7334 18.5175 18.3911 17.8444 18.3911ZM17.8444 19.1259C18.3247 19.1259 18.8331 19.3633 19.3926 19.9227C19.4268 19.9568 19.4673 19.9839 19.512 20.0023C19.5566 20.0207 19.6044 20.0302 19.6527 20.0301H20.1888V22.9119H18.7479C18.7085 22.9119 18.6694 22.9183 18.632 22.9308L16.074 23.7833C14.6503 22.9321 13.4654 22.2609 12.5848 21.8206C11.666 21.3612 11.0968 21.1036 10.6112 21.1036H8.16051C7.73547 21.1036 7.7462 20.0301 8.16051 20.0301H11.5148C11.9354 20.0301 13.0123 20.2802 14.5584 20.7723C14.4845 20.9502 14.4509 21.1351 14.4597 21.3131C14.4767 21.6564 14.6316 21.9654 14.8592 22.1943C15.0869 22.4232 15.3949 22.5793 15.7387 22.5967C16.0825 22.6142 16.4535 22.4772 16.7479 22.1828L17.6515 21.2787C17.6878 21.2451 17.717 21.2046 17.7373 21.1594C17.7575 21.1143 17.7685 21.0656 17.7695 21.0162C17.7705 20.9667 17.7615 20.9176 17.743 20.8717C17.7246 20.8258 17.697 20.7841 17.6621 20.7491C17.6271 20.7141 17.5855 20.6866 17.5396 20.6681C17.4937 20.6495 17.4446 20.6405 17.3952 20.6414C17.3457 20.6424 17.297 20.6533 17.2518 20.6735C17.2067 20.6937 17.1661 20.7229 17.1325 20.7591L16.2278 21.6633C16.0606 21.8305 15.9162 21.8702 15.776 21.8631C15.6358 21.856 15.4904 21.7864 15.3799 21.6753C15.2694 21.5643 15.2009 21.4188 15.1939 21.2775C15.1874 21.1458 15.2253 21.0099 15.3638 20.8585C15.3644 20.8579 15.365 20.8573 15.3656 20.8567C15.3924 20.8355 15.4162 20.8105 15.4362 20.7827C15.8784 20.3409 16.3072 19.9168 16.7123 19.6133C17.1312 19.2994 17.5131 19.1259 17.8444 19.1259ZM20.9236 19.1259H21.9971V19.6627V23.2793V23.816H20.9236V23.3424C20.9306 23.3016 20.9306 23.2598 20.9236 23.219V19.7258C20.9306 19.685 20.9306 19.6433 20.9236 19.6024V19.1259ZM22.7319 20.0301H24.2578V22.9119H22.7319V20.0301Z" fill="#1A8EF9"/>
</svg>
