<svg width="19" height="18" viewBox="0 0 19 18" fill="none" xmlns="http://www.w3.org/2000/svg">
<path d="M9.63013 1.60003C12.0002 1.60003 12.2813 1.6089 13.2178 1.65181C15.6234 1.76129 16.747 2.90269 16.8565 5.29052C16.8994 6.22627 16.9076 6.50737 16.9076 8.87745C16.9076 11.2483 16.8987 11.5286 16.8565 12.4644C16.7463 14.85 15.6256 15.9936 13.2178 16.1031C12.2813 16.146 12.0017 16.1549 9.63013 16.1549C7.26005 16.1549 6.97895 16.146 6.0432 16.1031C3.63169 15.9929 2.51397 14.8463 2.40449 12.4636C2.36158 11.5279 2.35271 11.2475 2.35271 8.87671C2.35271 6.50663 2.36232 6.22627 2.40449 5.28978C2.51471 2.90269 3.63539 1.76055 6.0432 1.65107C6.97969 1.6089 7.26005 1.60003 9.63013 1.60003ZM9.63013 0C7.21936 0 6.91756 0.0103562 5.97071 0.0532603C2.74698 0.201205 0.955363 1.98986 0.807418 5.21655C0.763774 6.16414 0.753418 6.46595 0.753418 8.87671C0.753418 11.2875 0.763774 11.59 0.806678 12.5369C0.954623 15.7606 2.74328 17.5522 5.96997 17.7002C6.91756 17.7431 7.21936 17.7534 9.63013 17.7534C12.0409 17.7534 12.3434 17.7431 13.2903 17.7002C16.5111 17.5522 18.3071 15.7636 18.4528 12.5369C18.4965 11.59 18.5068 11.2875 18.5068 8.87671C18.5068 6.46595 18.4965 6.16414 18.4536 5.21729C18.3086 1.99652 16.5177 0.201945 13.291 0.054C12.3434 0.0103562 12.0409 0 9.63013 0V0ZM9.63013 4.31852C7.11284 4.31852 5.07194 6.35943 5.07194 8.87671C5.07194 11.394 7.11284 13.4356 9.63013 13.4356C12.1474 13.4356 14.1883 11.3947 14.1883 8.87671C14.1883 6.35943 12.1474 4.31852 9.63013 4.31852ZM9.63013 11.8356C7.99608 11.8356 6.67123 10.5115 6.67123 8.87671C6.67123 7.24266 7.99608 5.91781 9.63013 5.91781C11.2642 5.91781 12.589 7.24266 12.589 8.87671C12.589 10.5115 11.2642 11.8356 9.63013 11.8356ZM14.3688 3.07356C13.78 3.07356 13.3029 3.55068 13.3029 4.13877C13.3029 4.72685 13.78 5.20397 14.3688 5.20397C14.9569 5.20397 15.4333 4.72685 15.4333 4.13877C15.4333 3.55068 14.9569 3.07356 14.3688 3.07356Z" fill="#F5971E"/>
</svg>
