<svg width="19" height="16" viewBox="0 0 19 16" fill="none" xmlns="http://www.w3.org/2000/svg">
<path d="M18.0142 2.37136C17.361 2.66133 16.659 2.85662 15.9222 2.94465C16.6745 2.49415 17.2523 1.78032 17.5237 0.929632C16.8202 1.34684 16.0406 1.65012 15.2106 1.8136C14.5471 1.10569 13.5995 0.66333 12.552 0.66333C10.2004 0.66333 8.47244 2.85736 9.00356 5.13497C5.97735 4.98333 3.29362 3.53347 1.49682 1.32982C0.542578 2.96684 1.00195 5.10834 2.62343 6.19278C2.02721 6.17355 1.46502 6.01007 0.974578 5.73711C0.934633 7.42443 2.14408 9.003 3.89576 9.35437C3.38313 9.49344 2.82167 9.52599 2.25061 9.41651C2.71367 10.8634 4.0585 11.916 5.65335 11.9456C4.12211 13.1462 2.19291 13.6825 0.260742 13.4547C1.87261 14.4881 3.78776 15.0909 5.84419 15.0909C12.6068 15.0909 16.4275 9.37952 16.1967 4.25692C16.9083 3.74281 17.5259 3.10147 18.0142 2.37136Z" fill="#F5971E"/>
</svg>
