<svg width="17" height="20" viewBox="0 0 17 20" fill="none" xmlns="http://www.w3.org/2000/svg">
<path d="M14.0176 7.37158H13.4069V5.01617C13.4069 2.20275 11.3787 0 8.47801 0C5.57736 0 3.59271 2.24637 3.59271 5.01617V7.34977C3.59271 7.37158 3.59271 7.37158 3.59271 7.34977H2.98204C1.62986 7.34977 0.539388 8.44024 0.517578 9.81424V17.1858C0.517578 18.538 1.60805 19.6285 2.98204 19.6503H14.0176C15.3698 19.6503 16.4603 18.5598 16.4821 17.1858V9.81424C16.4821 8.46205 15.3698 7.37158 14.0176 7.37158ZM4.81403 7.37158V5.01617C4.81403 2.92246 6.25345 1.22133 8.47801 1.22133C10.6808 1.22133 12.1856 2.87884 12.1856 5.01617V7.34977C12.1856 7.37158 12.1856 7.37158 12.1856 7.34977H4.81403C4.81403 7.37158 4.81403 7.37158 4.81403 7.37158ZM15.2389 17.1858C15.2389 17.8619 14.6937 18.4071 14.0176 18.4071H2.98204C2.30595 18.4071 1.76071 17.8619 1.76071 17.1858V9.81424C1.76071 9.13814 2.30595 8.59291 2.98204 8.59291H14.0176C14.6937 8.59291 15.2389 9.13814 15.2389 9.81424V17.1858ZM9.72115 12.2787C9.72115 12.7367 9.48125 13.1293 9.11049 13.3474H9.08868H9.11049V15.3538C9.11049 15.7028 8.82696 15.9645 8.49982 15.9645C8.15087 15.9645 7.88916 15.681 7.88916 15.3538V13.3474H7.91097H7.88916C7.5184 13.1293 7.2785 12.7367 7.2785 12.2787C7.2785 11.6026 7.82373 11.0574 8.49982 11.0574C9.17591 11.0356 9.72115 11.5808 9.72115 12.2787Z" fill="#F5381E"/>
</svg>
