<svg width="29" height="29" viewBox="0 0 29 29" fill="none" xmlns="http://www.w3.org/2000/svg">
<path d="M19.0505 17.62C19.1203 17.6885 19.1758 17.7702 19.2139 17.8603C19.2519 17.9504 19.2717 18.0472 19.2722 18.145C19.2726 18.2428 19.2537 18.3397 19.2165 18.4302C19.1792 18.5206 19.1244 18.6028 19.0553 18.672C18.9861 18.7412 18.9039 18.7959 18.8135 18.8332C18.723 18.8704 18.6261 18.8893 18.5283 18.8889C18.4305 18.8884 18.3337 18.8686 18.2436 18.8306C18.1535 18.7925 18.0718 18.737 18.0033 18.6672L14.8237 15.4877L11.6442 18.6672C11.5049 18.804 11.3172 18.8803 11.122 18.8794C10.9267 18.8785 10.7397 18.8006 10.6017 18.6625C10.4636 18.5244 10.3857 18.3374 10.3848 18.1422C10.3839 17.947 10.4601 17.7593 10.5969 17.62L13.7764 14.4404L10.5969 11.2609C10.4601 11.1216 10.3839 10.9339 10.3848 10.7387C10.3857 10.5434 10.4636 10.3564 10.6017 10.2184C10.7397 10.0803 10.9267 10.0024 11.122 10.0015C11.3172 10.0006 11.5049 10.0768 11.6442 10.2137L14.8237 13.3931L18.0033 10.2136C18.1424 10.0762 18.3303 9.99938 18.5259 10C18.7215 10.0006 18.9089 10.0786 19.0473 10.2169C19.1856 10.3552 19.2635 10.5426 19.2641 10.7382C19.2648 10.9338 19.188 11.1217 19.0505 11.2609L15.871 14.4404L19.0505 17.62Z" fill="#F5381E"/>
<circle cx="14.8281" cy="14.4429" r="9.125" transform="rotate(45 14.8281 14.4429)" stroke="#F5381E" stroke-width="1.75"/>
</svg>
