<svg width="101" height="67" viewBox="0 0 101 67" fill="none" xmlns="http://www.w3.org/2000/svg">
<path d="M52.0603 6.1301L50.0168 2.44809C49.6837 1.84085 49.1935 1.33425 48.5976 0.98124C48.0017 0.628234 47.3219 0.441792 46.6293 0.441406H15.995C14.9696 0.441406 13.9863 0.848738 13.2612 1.57377C12.5362 2.29881 12.1289 3.28217 12.1289 4.30753V62.8515C12.1289 63.9208 12.5537 64.9462 13.3098 65.7023C14.0659 66.4585 15.0914 66.8832 16.1607 66.8832H85.7506C86.8199 66.8832 87.8455 66.4585 88.6016 65.7023C89.3577 64.9462 89.7824 63.9208 89.7824 62.8515V11.7268C89.7824 10.7014 89.3751 9.71805 88.6501 8.99302C87.9251 8.26798 86.9417 7.86065 85.9164 7.86065H55.0059C54.4048 7.86292 53.8142 7.70347 53.2959 7.39899C52.7777 7.09452 52.3509 6.65624 52.0603 6.1301Z" fill="#DF7E00"/>
<path d="M80.097 10.1992H20.7246V54.5858H80.097V10.1992Z" fill="#263238"/>
<path opacity="0.91" d="M80.097 10.1992H20.7246V54.5858H80.097V10.1992Z" fill="white"/>
<path d="M84.387 14.6562H16.4355V65.468H84.387V14.6562Z" fill="#263238"/>
<path d="M84.387 14.6562H16.4355V65.468H84.387V14.6562Z" fill="white"/>
<path d="M96.5761 15.9248H55.8715C55.0408 15.8851 54.2109 16.0183 53.4344 16.3162C52.658 16.6141 51.9519 17.0702 51.361 17.6554L48.71 20.8587C48.2272 21.3679 47.6398 21.7665 46.9883 22.027C46.3369 22.2876 45.6367 22.4041 44.9359 22.3684H5.17025C2.40875 22.3684 0.567733 23.8596 1.04639 25.7006C4.93091 40.7784 6.88238 48.3081 10.7669 63.3675C11.1161 64.3836 11.774 65.2651 12.6487 65.889C13.5234 66.5128 14.5712 66.8478 15.6455 66.847H84.6464C85.7208 66.8478 86.7685 66.5128 87.6432 65.889C88.518 65.2651 89.1759 64.3836 89.525 63.3675L100.902 19.2755C101.363 17.4345 99.4481 15.9248 96.5761 15.9248Z" fill="#F5971E"/>
</svg>
