<svg width="20" height="19" viewBox="0 0 20 19" fill="none" xmlns="http://www.w3.org/2000/svg">
<path fill-rule="evenodd" clip-rule="evenodd" d="M15.9537 5.77647L13.3677 3.19047L14.4537 2.10447L17.0397 4.69047L15.9537 5.77647ZM6.46071 15.2695L3.22871 15.9155L3.87471 12.6835L11.9537 4.60447L14.5397 7.19047L6.46071 15.2695ZM18.4537 3.27647L15.8677 0.690469C15.0887 -0.0895312 13.8187 -0.0895312 13.0397 0.690469L2.24671 11.4835C2.10671 11.6235 2.01171 11.8005 1.97371 11.9945L0.97371 16.9945C0.90771 17.3225 1.01071 17.6615 1.24671 17.8975C1.43571 18.0875 1.69071 18.1905 1.95371 18.1905C2.01871 18.1905 2.08471 18.1845 2.14971 18.1715L7.14971 17.1715C7.34371 17.1325 7.52071 17.0375 7.66071 16.8975L18.4537 6.10447C19.2337 5.32447 19.2337 4.05647 18.4537 3.27647Z" fill="#1A8EF9"/>
</svg>
