<svg width="22" height="16" viewBox="0 0 22 16" fill="none" xmlns="http://www.w3.org/2000/svg">
<path fill-rule="evenodd" clip-rule="evenodd" d="M16.1166 4.40597C17.6997 5.68477 18.9444 7.18621 19.6358 8.10547C18.9444 9.02473 17.6997 10.5262 16.1166 11.8049C14.4465 13.1539 12.5858 14.1055 10.7236 14.1055C8.86144 14.1055 7.00072 13.1539 5.33071 11.8049C3.74758 10.5262 2.5029 9.02473 1.81149 8.10547C2.5029 7.18621 3.74758 5.68477 5.33071 4.40597C7.00072 3.05699 8.86144 2.10547 10.7236 2.10547C12.5858 2.10547 14.4465 3.05699 16.1166 4.40597ZM20.9641 7.33355C21.3101 7.79956 21.3101 8.41138 20.9641 8.87738C19.5429 10.792 15.4951 15.6055 10.7236 15.6055C5.95212 15.6055 1.90437 10.792 0.483092 8.87738C0.137146 8.41138 0.137146 7.79956 0.483092 7.33355C1.90436 5.41897 5.95212 0.605469 10.7236 0.605469C15.4951 0.605469 19.5429 5.41897 20.9641 7.33355ZM13.0346 8.10547C13.0346 9.34811 11.9999 10.3555 10.7236 10.3555C9.44733 10.3555 8.4127 9.34811 8.4127 8.10547C8.4127 6.86282 9.44733 5.85547 10.7236 5.85547C11.9999 5.85547 13.0346 6.86282 13.0346 8.10547ZM14.5752 8.10547C14.5752 10.1765 12.8508 11.8555 10.7236 11.8555C8.59648 11.8555 6.87208 10.1765 6.87208 8.10547C6.87208 6.0344 8.59648 4.35547 10.7236 4.35547C12.8508 4.35547 14.5752 6.0344 14.5752 8.10547Z" fill="#1A8EF9"/>
</svg>
