<svg width="32" height="32" viewBox="0 0 32 32" fill="none" xmlns="http://www.w3.org/2000/svg">
<circle cx="15.975" cy="15.7936" r="15.644" fill="#F3F8FF"/>
<path d="M16.0859 17.6098C16.16 17.6098 16.231 17.5803 16.2834 17.528C16.3358 17.4756 16.3652 17.4045 16.3652 17.3305V17.1032C16.464 17.0626 16.5521 16.9999 16.6228 16.9199C16.7446 16.7793 16.8109 16.5991 16.8094 16.4131C16.8123 16.3151 16.795 16.2175 16.7586 16.1264C16.7222 16.0353 16.6675 15.9526 16.5978 15.8836C16.5281 15.8145 16.445 15.7605 16.3537 15.7248C16.2623 15.6892 16.1645 15.6727 16.0665 15.6764H15.8752C15.8502 15.6779 15.8253 15.674 15.802 15.6649C15.7787 15.6558 15.7577 15.6418 15.7403 15.6239C15.723 15.6059 15.7097 15.5845 15.7014 15.5609C15.6931 15.5374 15.6899 15.5123 15.6922 15.4874C15.6908 15.4405 15.7063 15.3946 15.7359 15.3581C15.7541 15.3402 15.776 15.3265 15.8 15.3179C15.8241 15.3093 15.8497 15.306 15.8752 15.3083H16.4112C16.4852 15.3083 16.5563 15.2789 16.6087 15.2265C16.661 15.1741 16.6905 15.1031 16.6905 15.029C16.6905 14.9549 16.661 14.8839 16.6087 14.8315C16.5563 14.7791 16.4852 14.7497 16.4112 14.7497H16.3652V14.5376C16.3652 14.4635 16.3358 14.3925 16.2834 14.3401C16.231 14.2877 16.16 14.2583 16.0859 14.2583C16.0119 14.2583 15.9408 14.2877 15.8884 14.3401C15.8361 14.3925 15.8066 14.4635 15.8066 14.5376V14.753C15.6209 14.7635 15.4465 14.8462 15.3208 14.9834C15.1951 15.1206 15.1279 15.3014 15.1336 15.4874C15.1312 15.5857 15.1486 15.6836 15.1849 15.775C15.2213 15.8664 15.2757 15.9495 15.345 16.0194C15.4142 16.0892 15.4969 16.1443 15.588 16.1814C15.6791 16.2184 15.7768 16.2367 15.8752 16.235H16.0665C16.0909 16.2318 16.1157 16.2342 16.1391 16.2419C16.1625 16.2496 16.1839 16.2625 16.2016 16.2796C16.2193 16.2967 16.2329 16.3176 16.2414 16.3407C16.25 16.3639 16.2532 16.3886 16.2508 16.4131C16.252 16.4631 16.2353 16.5119 16.2036 16.5506C16.1861 16.569 16.1646 16.5831 16.1409 16.5922C16.1172 16.6012 16.0918 16.6049 16.0665 16.6029H15.5304C15.4937 16.6029 15.4574 16.6102 15.4235 16.6242C15.3896 16.6382 15.3589 16.6588 15.3329 16.6847C15.307 16.7107 15.2864 16.7415 15.2724 16.7753C15.2583 16.8092 15.2511 16.8455 15.2511 16.8822C15.2511 16.9189 15.2583 16.9552 15.2724 16.9891C15.2864 17.023 15.307 17.0538 15.3329 17.0797C15.3589 17.1056 15.3896 17.1262 15.4235 17.1403C15.4574 17.1543 15.4937 17.1615 15.5304 17.1615H15.8066V17.3305C15.8066 17.4045 15.8361 17.4756 15.8884 17.528C15.9408 17.5803 16.0119 17.6098 16.0859 17.6098Z" fill="#1A8EF9"/>
<path d="M16.9893 17.9243C17.0668 17.9576 17.1414 17.9905 17.2102 18.0213C17.3631 18.0896 17.4994 18.1502 17.617 18.1884C17.9089 17.9743 18.1569 17.7062 18.3476 17.3985C18.1944 17.2883 18.0507 17.1655 17.9181 17.0312C17.702 17.413 17.3792 17.7234 16.9893 17.9243Z" fill="#1A8EF9"/>
<path d="M14.3887 17.5093C14.0114 17.1298 13.7829 16.6274 13.7449 16.0935C13.707 15.5597 13.862 15.03 14.1818 14.6008C14.5016 14.1717 14.9648 13.8717 15.4872 13.7555C16.0097 13.6392 16.5564 13.7145 17.028 13.9676C17.0681 13.7835 17.1237 13.6031 17.1944 13.4284C16.6318 13.1527 15.9927 13.0746 15.3802 13.2067C14.7678 13.3388 14.2177 13.6734 13.8188 14.1565C13.4198 14.6396 13.1953 15.243 13.1814 15.8693C13.1674 16.4957 13.365 17.1085 13.7421 17.6088C13.9564 17.5676 14.174 17.5333 14.3887 17.5093Z" fill="#1A8EF9"/>
<path d="M24.6333 18.3012C24.4882 18.1504 24.162 17.9219 23.6076 18.0869C23.275 18.1858 22.2164 18.9363 21.3407 19.5841C21.4046 19.7921 21.4292 20.0102 21.4132 20.2272C22.4354 19.4655 23.5232 18.6947 23.7669 18.6223C23.8429 18.59 23.9263 18.5792 24.008 18.5908C24.0897 18.6025 24.1667 18.6362 24.2307 18.6884C24.2931 18.7686 24.3337 18.8637 24.3482 18.9643C24.3628 19.0649 24.3509 19.1676 24.3138 19.2623C24.1153 19.8455 20.4073 22.9167 18.8789 23.7638C17.5455 24.5029 16.6676 24.0843 16.0268 23.7789C14.9382 23.2788 13.7954 22.9064 12.6213 22.6691V22.7783C12.6208 22.9291 12.5999 23.0792 12.5591 23.2245C13.6709 23.4561 14.7534 23.8111 15.7863 24.283C16.297 24.561 16.8657 24.7155 17.4468 24.7341C18.0465 24.7231 18.6331 24.5571 19.1497 24.2523C20.4879 23.5106 24.542 20.3256 24.8426 19.4423C24.9142 19.2509 24.9325 19.0438 24.8957 18.8428C24.8588 18.6419 24.7682 18.4547 24.6333 18.3012Z" fill="#1A8EF9"/>
<path d="M15.2163 18.5979C15.7515 18.6512 16.2725 18.8011 16.7541 19.0405C16.9855 19.154 17.228 19.2434 17.4777 19.3071C17.8285 19.3672 18.1838 19.3961 18.5396 19.3935C19.1994 19.4113 19.9473 19.4315 20.1888 19.7432C20.2436 19.8197 20.2798 19.9078 20.2948 20.0006C20.3098 20.0934 20.3031 20.1884 20.2752 20.2782C20.2085 20.4903 20.0203 20.65 19.731 20.7401C18.9883 20.9715 16.9565 21.185 16.1159 21.0699C16.0796 21.065 16.0426 21.0672 16.0072 21.0765C15.9717 21.0858 15.9384 21.102 15.9092 21.1242C15.88 21.1464 15.8554 21.1741 15.8369 21.2058C15.8184 21.2374 15.8064 21.2724 15.8014 21.3088C15.7964 21.3451 15.7986 21.3821 15.808 21.4175C15.8173 21.453 15.8335 21.4863 15.8557 21.5155C15.8778 21.5447 15.9056 21.5693 15.9372 21.5878C15.9689 21.6063 16.0039 21.6183 16.0402 21.6233C16.2615 21.6498 16.4843 21.6618 16.7071 21.6593C17.7485 21.6593 19.2485 21.4755 19.8971 21.2735C20.3622 21.1285 20.6857 20.8346 20.808 20.4458C20.8623 20.27 20.8745 20.0838 20.8437 19.9023C20.8128 19.7208 20.7398 19.5492 20.6304 19.4011C20.2267 18.8802 19.3767 18.8573 18.5546 18.8352C18.234 18.8375 17.9137 18.8129 17.5972 18.7615C17.385 18.7052 17.179 18.6278 16.9822 18.5306C16.4445 18.2659 15.8635 18.1003 15.2671 18.0417C14.4213 17.9642 13.2297 18.2742 12.4927 18.503C12.5647 18.6771 12.6067 18.8622 12.6167 19.0503C13.3086 18.8334 14.4525 18.5277 15.2163 18.5979Z" fill="#1A8EF9"/>
<path d="M10.9457 18.0295H7.31493C7.24086 18.0295 7.16982 18.059 7.11745 18.1113C7.06507 18.1637 7.03564 18.2348 7.03564 18.3088C7.03564 18.3829 7.06507 18.4539 7.11745 18.5063C7.16982 18.5587 7.24086 18.5881 7.31493 18.5881H9.54927V23.336H7.31493C7.24086 23.336 7.16982 23.3654 7.11745 23.4178C7.06507 23.4702 7.03564 23.5412 7.03564 23.6153C7.03564 23.6894 7.06507 23.7604 7.11745 23.8128C7.16982 23.8651 7.24086 23.8946 7.31493 23.8946H10.9457C11.2419 23.8942 11.5259 23.7764 11.7353 23.567C11.9447 23.3576 12.0626 23.0736 12.0629 22.7774V19.1467C12.0626 18.8505 11.9447 18.5666 11.7353 18.3571C11.5259 18.1477 11.2419 18.0299 10.9457 18.0295ZM11.5043 22.7774C11.5041 22.9255 11.4452 23.0675 11.3405 23.1722C11.2358 23.2769 11.0938 23.3358 10.9457 23.336H10.1079V18.5881H10.9457C11.0938 18.5883 11.2358 18.6472 11.3405 18.7519C11.4452 18.8566 11.5041 18.9986 11.5043 19.1467V22.7774Z" fill="#1A8EF9"/>
<path d="M20.3017 17.4727C20.8541 17.4727 21.394 17.3089 21.8533 17.002C22.3126 16.6951 22.6706 16.2589 22.8819 15.7486C23.0933 15.2383 23.1486 14.6767 23.0409 14.1349C22.9331 13.5932 22.6671 13.0955 22.2765 12.705C21.8859 12.3144 21.3883 12.0484 20.8465 11.9406C20.3047 11.8329 19.7432 11.8882 19.2329 12.0996C18.7225 12.311 18.2864 12.6689 17.9795 13.1282C17.6726 13.5875 17.5088 14.1275 17.5088 14.6798C17.5096 15.4203 17.8042 16.1302 18.3278 16.6538C18.8514 17.1773 19.5612 17.4719 20.3017 17.4727ZM20.3017 12.4455C20.7436 12.4455 21.1756 12.5766 21.543 12.8221C21.9104 13.0676 22.1968 13.4166 22.3659 13.8248C22.535 14.2331 22.5792 14.6823 22.493 15.1157C22.4068 15.5492 22.194 15.9473 21.8815 16.2597C21.5691 16.5722 21.171 16.785 20.7375 16.8712C20.3041 16.9574 19.8549 16.9132 19.4466 16.7441C19.0384 16.5749 18.6894 16.2886 18.4439 15.9211C18.1984 15.5537 18.0674 15.1217 18.0674 14.6798C18.0681 14.0875 18.3037 13.5196 18.7226 13.1007C19.1414 12.6818 19.7093 12.4462 20.3017 12.4455V12.4455Z" fill="#1A8EF9"/>
<path d="M20.2057 14.9799H20.397C20.4215 14.9767 20.4463 14.979 20.4697 14.9868C20.4931 14.9945 20.5144 15.0074 20.5321 15.0245C20.5498 15.0416 20.5635 15.0625 20.572 15.0856C20.5805 15.1087 20.5837 15.1335 20.5814 15.158C20.5826 15.208 20.5658 15.2568 20.5342 15.2955C20.5166 15.3138 20.4952 15.328 20.4715 15.3371C20.4478 15.3461 20.4223 15.3498 20.397 15.3478H19.861C19.8243 15.3478 19.788 15.355 19.7541 15.3691C19.7202 15.3831 19.6894 15.4037 19.6635 15.4296C19.6376 15.4555 19.617 15.4863 19.6029 15.5202C19.5889 15.5541 19.5817 15.5904 19.5817 15.6271C19.5817 15.6638 19.5889 15.7001 19.6029 15.734C19.617 15.7679 19.6376 15.7986 19.6635 15.8246C19.6894 15.8505 19.7202 15.8711 19.7541 15.8851C19.788 15.8992 19.8243 15.9064 19.861 15.9064H20.1372V16.0753C20.1372 16.1494 20.1666 16.2205 20.219 16.2728C20.2714 16.3252 20.3424 16.3546 20.4165 16.3546C20.4906 16.3546 20.5616 16.3252 20.614 16.2728C20.6664 16.2205 20.6958 16.1494 20.6958 16.0753V15.8481C20.7945 15.8075 20.8826 15.7447 20.9533 15.6647C21.0751 15.5242 21.1415 15.344 21.14 15.158C21.1428 15.0599 21.1255 14.9623 21.0891 14.8712C21.0527 14.7801 20.998 14.6975 20.9284 14.6284C20.8587 14.5594 20.7756 14.5053 20.6842 14.4697C20.5928 14.4341 20.4951 14.4176 20.397 14.4213H20.2057C20.1808 14.4228 20.1558 14.4188 20.1326 14.4098C20.1093 14.4007 20.0883 14.3867 20.0709 14.3688C20.0535 14.3508 20.0402 14.3293 20.0319 14.3058C20.0236 14.2822 20.0205 14.2572 20.0228 14.2323C20.0213 14.1854 20.0368 14.1395 20.0664 14.103C20.0846 14.0851 20.1065 14.0714 20.1306 14.0628C20.1546 14.0542 20.1803 14.0509 20.2057 14.0532H20.7417C20.8158 14.0532 20.8869 14.0237 20.9392 13.9714C20.9916 13.919 21.021 13.848 21.021 13.7739C21.021 13.6998 20.9916 13.6288 20.9392 13.5764C20.8869 13.524 20.8158 13.4946 20.7417 13.4946H20.6958V13.2825C20.6958 13.2084 20.6664 13.1374 20.614 13.085C20.5616 13.0326 20.4906 13.0032 20.4165 13.0032C20.3424 13.0032 20.2714 13.0326 20.219 13.085C20.1666 13.1374 20.1372 13.2084 20.1372 13.2825V13.4979C19.9514 13.5084 19.7771 13.5911 19.6514 13.7283C19.5257 13.8654 19.4585 14.0463 19.4642 14.2323C19.4617 14.3306 19.4792 14.4284 19.5155 14.5199C19.5518 14.6113 19.6062 14.6944 19.6755 14.7642C19.7448 14.8341 19.8275 14.8892 19.9186 14.9262C20.0097 14.9633 20.1074 14.9815 20.2057 14.9799Z" fill="#1A8EF9"/>
<path d="M20.3003 11.3266C20.3744 11.3266 20.4454 11.2971 20.4978 11.2448C20.5502 11.1924 20.5796 11.1213 20.5796 11.0473V8.53369C20.5796 8.45961 20.5502 8.38857 20.4978 8.3362C20.4454 8.28382 20.3744 8.25439 20.3003 8.25439C20.2262 8.25439 20.1552 8.28382 20.1028 8.3362C20.0504 8.38857 20.021 8.45961 20.021 8.53369V11.0473C20.021 11.1213 20.0504 11.1924 20.1028 11.2448C20.1552 11.2971 20.2262 11.3266 20.3003 11.3266Z" fill="#1A8EF9"/>
<path d="M20.3003 7.69626C20.3744 7.69626 20.4454 7.66684 20.4978 7.61446C20.5502 7.56208 20.5796 7.49105 20.5796 7.41698V7.13769C20.5796 7.06362 20.5502 6.99258 20.4978 6.9402C20.4454 6.88782 20.3744 6.8584 20.3003 6.8584C20.2262 6.8584 20.1552 6.88782 20.1028 6.9402C20.0504 6.99258 20.021 7.06362 20.021 7.13769V7.41698C20.021 7.49105 20.0504 7.56208 20.1028 7.61446C20.1552 7.66684 20.2262 7.69626 20.3003 7.69626Z" fill="#1A8EF9"/>
<path d="M22.2573 11.7448C22.3314 11.7448 22.4024 11.7153 22.4548 11.663C22.5072 11.6106 22.5366 11.5396 22.5366 11.4655V8.9519C22.5366 8.87783 22.5072 8.80679 22.4548 8.75441C22.4024 8.70203 22.3314 8.67261 22.2573 8.67261C22.1832 8.67261 22.1122 8.70203 22.0598 8.75441C22.0075 8.80679 21.978 8.87783 21.978 8.9519V11.4655C21.978 11.5396 22.0075 11.6106 22.0598 11.663C22.1122 11.7153 22.1832 11.7448 22.2573 11.7448Z" fill="#1A8EF9"/>
<path d="M22.2573 8.11472C22.3314 8.11472 22.4024 8.08529 22.4548 8.03292C22.5072 7.98054 22.5366 7.90951 22.5366 7.83543V7.55615C22.5366 7.48207 22.5072 7.41104 22.4548 7.35866C22.4024 7.30628 22.3314 7.27686 22.2573 7.27686C22.1832 7.27686 22.1122 7.30628 22.0598 7.35866C22.0075 7.41104 21.978 7.48207 21.978 7.55615V7.83543C21.978 7.90951 22.0075 7.98054 22.0598 8.03292C22.1122 8.08529 22.1832 8.11472 22.2573 8.11472Z" fill="#1A8EF9"/>
<path d="M18.3472 11.7448C18.4212 11.7448 18.4923 11.7153 18.5446 11.663C18.597 11.6106 18.6265 11.5396 18.6265 11.4655V8.9519C18.6265 8.87783 18.597 8.80679 18.5447 8.75441C18.4923 8.70203 18.4212 8.67261 18.3472 8.67261C18.2731 8.67261 18.2021 8.70203 18.1497 8.75441C18.0973 8.80679 18.0679 8.87783 18.0679 8.9519V11.4655C18.0679 11.5396 18.0973 11.6106 18.1497 11.663C18.2021 11.7153 18.2731 11.7448 18.3472 11.7448Z" fill="#1A8EF9"/>
<path d="M18.3472 8.11472C18.4212 8.11472 18.4923 8.08529 18.5446 8.03292C18.597 7.98054 18.6265 7.90951 18.6265 7.83543V7.55615C18.6265 7.48207 18.597 7.41104 18.5447 7.35866C18.4923 7.30628 18.4212 7.27686 18.3472 7.27686C18.2731 7.27686 18.2021 7.30628 18.1497 7.35866C18.0973 7.41104 18.0679 7.48207 18.0679 7.55615V7.83543C18.0679 7.90951 18.0973 7.98054 18.1497 8.03292C18.2021 8.08529 18.2731 8.11472 18.3472 8.11472Z" fill="#1A8EF9"/>
</svg>
