<svg width="16" height="16" viewBox="0 0 16 16" fill="none" xmlns="http://www.w3.org/2000/svg">
<path d="M15.6003 13.7159C15.7259 13.8393 15.8259 13.9863 15.8943 14.1485C15.9628 14.3107 15.9985 14.4849 15.9993 14.661C16.0001 14.837 15.966 15.0115 15.899 15.1743C15.832 15.3371 15.7334 15.4851 15.6089 15.6096C15.4844 15.7341 15.3365 15.8327 15.1736 15.8997C15.0108 15.9667 14.8363 16.0008 14.6603 16C14.4842 15.9992 14.3101 15.9635 14.1479 15.895C13.9856 15.8266 13.8386 15.7266 13.7153 15.601L7.99209 9.87792L2.26893 15.601C2.01819 15.8472 1.68034 15.9845 1.32891 15.9829C0.977471 15.9813 0.640882 15.841 0.392377 15.5925C0.143871 15.344 0.00355833 15.0074 0.00196681 14.656C0.000375292 14.3045 0.137634 13.9667 0.383879 13.7159L6.10696 7.99279L0.383879 2.26963C0.137634 2.01888 0.000375292 1.68104 0.00196681 1.3296C0.00355833 0.978163 0.143871 0.641575 0.392377 0.393069C0.640882 0.144564 0.977471 0.00425095 1.32891 0.00265943C1.68034 0.00106791 2.01819 0.138327 2.26893 0.384571L7.99209 6.10765L13.7153 0.384491C13.9658 0.137112 14.304 -0.00110856 14.6561 6.69698e-06C15.0081 0.00112196 15.3455 0.141482 15.5944 0.390444C15.8434 0.639406 15.9837 0.976748 15.9848 1.32882C15.9859 1.6809 15.8477 2.01911 15.6003 2.26963L9.87723 7.99279L15.6003 13.7159Z" fill="#7A8594"/>
</svg>
