<svg width="34" height="33" viewBox="0 0 34 33" fill="none" xmlns="http://www.w3.org/2000/svg">
<circle cx="17.0381" cy="16.6592" r="16.1743" fill="#F3F8FF"/>
<path d="M25.6397 18.9492C25.579 18.7181 25.4729 18.5014 25.3277 18.3117C25.1824 18.122 25.0009 17.963 24.7936 17.8442C24.5878 17.7246 24.417 17.5532 24.298 17.3471C24.179 17.141 24.116 16.9073 24.1154 16.6693V16.6452C24.116 16.4072 24.1791 16.1735 24.2982 15.9675C24.4173 15.7615 24.5884 15.5903 24.7943 15.471C25.2106 15.23 25.5143 14.8336 25.6389 14.369C25.7634 13.9043 25.6986 13.4092 25.4587 12.9922L24.5104 11.3471C24.2695 10.9304 23.873 10.6265 23.4081 10.502C22.9431 10.3775 22.4478 10.4428 22.0309 10.6833L21.9674 10.7179C21.7796 10.8275 21.566 10.8852 21.3486 10.8852C21.1311 10.8852 20.9175 10.8275 20.7297 10.7179L20.5916 10.6371C20.4028 10.5298 20.2459 10.3742 20.1369 10.1864C20.0279 9.99853 19.9708 9.7851 19.9714 9.56792V9.49333C19.9706 9.01235 19.7792 8.55128 19.4391 8.21118C19.099 7.87108 18.638 7.67969 18.157 7.67896H16.2604C15.7795 7.67969 15.3184 7.87108 14.9783 8.21118C14.6382 8.55128 14.4468 9.01235 14.4461 9.49333V9.56792C14.4475 9.78548 14.3909 9.99949 14.2823 10.188C14.1737 10.3765 14.0168 10.5327 13.8279 10.6405L13.6863 10.7179C13.4985 10.8276 13.285 10.8854 13.0675 10.8854C12.85 10.8854 12.6364 10.8276 12.4487 10.7179L12.3837 10.6799C11.9668 10.44 11.4717 10.3752 11.007 10.4997C10.5423 10.6243 10.146 10.928 9.90493 11.3443L8.95872 12.9895C8.71879 13.4064 8.654 13.9015 8.77855 14.3662C8.9031 14.8309 9.20683 15.2272 9.62314 15.4683C9.83006 15.5904 10.0016 15.7643 10.1207 15.973C10.2398 16.1816 10.3025 16.4177 10.3025 16.6579C10.3025 16.8982 10.2398 17.1343 10.1207 17.3429C10.0016 17.5516 9.83006 17.7255 9.62314 17.8476C9.41666 17.9667 9.23567 18.1252 9.09051 18.3143C8.94535 18.5033 8.83888 18.7191 8.77717 18.9493C8.71547 19.1795 8.69974 19.4196 8.73089 19.6559C8.76204 19.8922 8.83946 20.1201 8.95872 20.3264L9.8704 21.9066C10.1214 22.3398 10.5339 22.6557 11.0175 22.7852C11.501 22.9146 12.0162 22.8471 12.45 22.5973C12.6385 22.4868 12.8531 22.4285 13.0716 22.4285C13.2902 22.4285 13.5047 22.4868 13.6932 22.5973L13.8314 22.674C14.0198 22.7824 14.1761 22.9391 14.2841 23.1278C14.3921 23.3165 14.448 23.5305 14.4461 23.748C14.4468 24.2487 14.6461 24.7286 15.0002 25.0826C15.3543 25.4366 15.8343 25.6357 16.335 25.6362H18.0824C18.5831 25.6357 19.0631 25.4366 19.4173 25.0826C19.7714 24.7286 19.9706 24.2487 19.9714 23.748C19.9699 23.5303 20.0264 23.3162 20.135 23.1276C20.2437 22.9389 20.4005 22.7826 20.5895 22.6747L20.7276 22.5946C20.9156 22.4848 21.1292 22.427 21.3468 22.427C21.5644 22.427 21.7781 22.4848 21.966 22.5946C22.3997 22.8443 22.9148 22.9118 23.3983 22.7823C23.8817 22.6529 24.2941 22.337 24.545 21.9039L25.4559 20.3264C25.5762 20.1204 25.6543 19.8926 25.6859 19.6562C25.7174 19.4198 25.7017 19.1795 25.6397 18.9492ZM24.2583 19.6357L23.3508 21.216C23.2832 21.3316 23.1728 21.4158 23.0435 21.4505C22.9142 21.4852 22.7764 21.4674 22.6601 21.4011C22.2612 21.1701 21.8083 21.0489 21.3473 21.0496C20.8864 21.0503 20.4338 21.173 20.0356 21.4052L19.9189 21.4743C19.5156 21.7013 19.1799 22.0315 18.9464 22.4311C18.7129 22.8306 18.5899 23.2852 18.59 23.748C18.5899 23.8825 18.5363 24.0114 18.4411 24.1065C18.3459 24.2015 18.2169 24.2549 18.0824 24.2549H16.335C16.2005 24.2549 16.0715 24.2015 15.9763 24.1065C15.8811 24.0114 15.8276 23.8825 15.8274 23.748C15.829 23.2847 15.7072 22.8294 15.4745 22.4288C15.2418 22.0282 14.9066 21.6968 14.5034 21.4688L14.3922 21.4045C13.993 21.1683 13.5375 21.044 13.0737 21.0447C12.613 21.0452 12.1605 21.1666 11.7614 21.3969C11.6451 21.4633 11.5074 21.481 11.3781 21.4464C11.2487 21.4117 11.1383 21.3274 11.0708 21.2118L10.1556 19.6357C10.1271 19.5865 10.1085 19.5321 10.1011 19.4756C10.0936 19.4192 10.0973 19.3618 10.1121 19.3068C10.1268 19.2518 10.1523 19.2002 10.1871 19.1551C10.2218 19.11 10.2651 19.0722 10.3145 19.0438C10.7315 18.8005 11.0775 18.4522 11.318 18.0335C11.5585 17.6148 11.685 17.1404 11.685 16.6576C11.685 16.1748 11.5585 15.7004 11.318 15.2817C11.0775 14.863 10.7315 14.5147 10.3145 14.2713C10.2651 14.2432 10.2218 14.2055 10.1872 14.1605C10.1526 14.1154 10.1273 14.0639 10.1128 14.0089C10.098 13.9539 10.0942 13.8966 10.1017 13.8402C10.1092 13.7837 10.1277 13.7294 10.1563 13.6801L11.1039 12.0377C11.1323 11.9885 11.17 11.9454 11.215 11.9108C11.2601 11.8762 11.3114 11.8507 11.3663 11.836C11.4211 11.8212 11.4783 11.8174 11.5346 11.8248C11.5909 11.8322 11.6452 11.8505 11.6944 11.8789L11.7594 11.9162C12.1597 12.148 12.6144 12.2696 13.0771 12.2684C13.5397 12.2671 13.9937 12.1432 14.3929 11.9093L14.5034 11.845C14.9064 11.6173 15.2415 11.2862 15.4742 10.886C15.7069 10.4858 15.8288 10.0309 15.8274 9.56792V9.49333C15.8274 9.37848 15.873 9.26833 15.9542 9.18712C16.0354 9.10591 16.1456 9.06028 16.2604 9.06028H18.157C18.2718 9.06028 18.382 9.10591 18.4632 9.18712C18.5444 9.26833 18.59 9.37848 18.59 9.49333V9.56792C18.5885 10.0312 18.7103 10.4865 18.943 10.887C19.1757 11.2876 19.5109 11.619 19.914 11.8471L20.0252 11.9107C20.4244 12.1446 20.8785 12.2685 21.3412 12.2696C21.8038 12.2707 22.2585 12.149 22.6587 11.9169L22.7223 11.881C22.7715 11.8525 22.8258 11.834 22.8822 11.8265C22.9385 11.819 22.9958 11.8227 23.0507 11.8374C23.1056 11.8521 23.1571 11.8775 23.2022 11.9121C23.2473 11.9467 23.2851 11.9899 23.3135 12.0391L24.2618 13.6815C24.2904 13.7307 24.309 13.7851 24.3164 13.8415C24.3239 13.898 24.3201 13.9553 24.3053 14.0103C24.2908 14.0652 24.2656 14.1168 24.2309 14.1618C24.1963 14.2069 24.153 14.2446 24.1036 14.2727C23.6876 14.5138 23.3421 14.8599 23.1018 15.2763C22.8614 15.6928 22.7346 16.165 22.734 16.6459V16.6686C22.7342 17.1498 22.8608 17.6225 23.1012 18.0394C23.3416 18.4563 23.6872 18.8026 24.1036 19.0438C24.1529 19.0723 24.1961 19.1102 24.2307 19.1554C24.2653 19.2005 24.2907 19.252 24.3054 19.307C24.32 19.362 24.3238 19.4193 24.3163 19.4757C24.3088 19.5321 24.2903 19.5865 24.2618 19.6357H24.2583Z" fill="#1A8EF9"/>
<path d="M17.2072 13.2073C16.5242 13.2073 15.8566 13.4098 15.2887 13.7893C14.7208 14.1687 14.2782 14.7081 14.0168 15.3391C13.7554 15.9701 13.687 16.6644 13.8203 17.3343C13.9535 18.0042 14.2824 18.6195 14.7654 19.1025C15.2483 19.5854 15.8636 19.9143 16.5335 20.0476C17.2034 20.1808 17.8977 20.1124 18.5288 19.8511C19.1598 19.5897 19.6991 19.1471 20.0786 18.5792C20.458 18.0113 20.6606 17.3436 20.6606 16.6606C20.6595 15.7451 20.2953 14.8673 19.6479 14.2199C19.0005 13.5726 18.1228 13.2084 17.2072 13.2073ZM17.2072 18.7326C16.7974 18.7326 16.3968 18.6111 16.0561 18.3834C15.7154 18.1557 15.4498 17.8321 15.293 17.4535C15.1361 17.0749 15.0951 16.6583 15.1751 16.2564C15.255 15.8544 15.4523 15.4853 15.7421 15.1955C16.0319 14.9057 16.4011 14.7084 16.803 14.6284C17.2049 14.5485 17.6215 14.5895 18.0001 14.7463C18.3788 14.9032 18.7024 15.1687 18.93 15.5095C19.1577 15.8502 19.2792 16.2508 19.2792 16.6606C19.2792 17.2101 19.0609 17.7371 18.6724 18.1257C18.2838 18.5143 17.7568 18.7326 17.2072 18.7326Z" fill="#1A8EF9"/>
</svg>
