<svg width="420" height="189" viewBox="0 0 420 189" fill="none" xmlns="http://www.w3.org/2000/svg">
<path d="M151.133 40.0559C230.299 17.8402 313.071 55.5741 349.84 126.328L332.376 131.229C324.227 133.516 322.181 144.145 329.215 149.085L380.597 186.829C386.14 190.929 393.545 188.223 395.732 182.582L418.859 123.929C422.303 116.049 415.035 108.033 406.886 110.32L382.437 117.181C340.028 28.527 239.369 -19.2707 141.995 7.42627C73.3063 26.7017 20.2305 79.3039 0.878122 146.953C-1.49403 156.417 3.77183 166.252 13.6457 167.88C22.3554 169.835 30.271 164.472 32.9696 156.173C49.4384 100.646 94.0871 56.0643 151.133 40.0559Z" fill="#1A8EF9"/>
</svg>
