<svg width="269" height="233" viewBox="0 0 269 233" fill="none" xmlns="http://www.w3.org/2000/svg">
<path d="M223.25 1.90544L223.306 1.91109L223.363 1.91034C255.393 1.48628 277.242 34.1138 262.143 64.3666C255.815 77.0446 244.429 84.5455 229.388 87.1042L229.388 87.1042C214.712 89.6035 201.84 97.2419 190.772 107.601L190.771 107.601C179.424 118.24 170.511 130.519 165.54 145.313C160.734 159.61 158.964 174.562 162.923 189.691L162.925 189.698C165.855 200.599 162.533 210.571 156.838 219.7C151.1 228.793 144.99 237.651 138.871 246.521C136.539 249.901 134.205 253.284 131.891 256.681L131.889 256.684C124.995 266.876 118.078 277.05 111.164 287.219C100.135 303.441 89.1117 319.652 78.2005 335.915L78.1996 335.917C67.6832 351.649 43.8462 357.651 24.6052 348.864C0.548919 337.871 -6.5404 305.383 9.96565 284.466L9.96783 284.463C16.1363 276.589 21.639 268.074 27.0857 259.645C29.5643 255.81 32.0313 251.992 34.5443 248.261L34.5454 248.259C37.3091 244.138 40.0653 240.011 42.8213 235.883C52.7361 221.036 62.6505 206.19 72.9196 191.606C74.7552 189.015 76.5114 186.308 78.2537 183.622C79.515 181.677 80.7691 179.744 82.0407 177.874C85.1084 173.363 88.379 169.06 92.4126 165.303L92.4145 165.301C98.8868 159.24 106.502 155.976 114.763 153.978C146.702 146.671 167.892 127.634 179.118 96.8177L179.119 96.8143C184.244 82.5849 184.377 68.0939 182.343 53.6856L182.343 53.6842C180.92 43.7046 181.818 34.9696 185.104 27.3481C188.386 19.7335 194.085 13.1538 202.392 7.53183C209.176 3.2876 216.311 1.21034 223.25 1.90544Z" stroke="#93C83D" stroke-width="2"/>
</svg>
