<svg width="185" height="354" viewBox="0 0 185 354" fill="none" xmlns="http://www.w3.org/2000/svg">
<path d="M139.35 0.1614C172.11 -0.272329 194.48 33.1248 179.037 64.0642C172.543 77.0761 160.853 84.7386 145.555 87.341C131.124 89.7988 118.424 97.3168 107.455 107.582C96.1984 118.136 87.395 130.28 82.4881 144.882C77.7256 159.051 75.9938 173.798 79.8904 188.689C82.9211 199.966 79.4574 210.231 73.6847 219.484C65.7472 232.062 57.088 244.206 48.7175 256.495C30.822 282.953 12.7822 309.266 -4.96906 335.723C-15.793 351.916 -40.1828 357.988 -59.8102 349.024C-84.4887 337.747 -91.7047 304.495 -74.8194 283.097C-65.8716 271.676 -58.367 258.953 -50.2852 246.953C-37.5851 228.014 -25.0294 208.93 -11.8964 190.279C-5.54633 181.316 -0.495178 171.484 7.731 163.822C14.3697 157.605 22.1629 154.28 30.5334 152.256C62.1392 145.027 83.0654 126.232 94.178 95.7264C99.2291 81.7025 99.3734 67.3894 97.353 53.0764C94.4666 32.8357 100.961 17.366 117.846 5.94446C124.774 1.60716 132.134 -0.561482 139.35 0.1614Z" fill="#93C83D"/>
</svg>
