<svg width="420" height="189" viewBox="0 0 420 189" fill="none" xmlns="http://www.w3.org/2000/svg">
<path d="M419.087 42.1158C421.459 32.6516 416.193 22.8169 406.319 21.1884C397.609 19.2333 389.694 24.5969 386.995 32.8958C370.107 89.1692 326.623 133.424 268.831 149.013C189.665 171.228 106.894 133.495 70.1252 62.7403L87.5884 57.8398C95.7378 55.5528 97.7836 44.9233 90.7496 39.984L39.3679 2.24003C33.8244 -1.86056 26.4203 0.84566 24.2332 6.48715L1.10551 65.1401C-2.33832 73.0196 4.92958 81.0356 13.079 78.7487L37.5274 71.8879C79.937 160.542 180.596 208.339 277.644 180.477C346.659 162.367 398.989 109.345 419.087 42.1158Z" fill="#1A8EF9"/>
</svg>
