<svg width="14" height="14" viewBox="0 0 14 14" fill="none" xmlns="http://www.w3.org/2000/svg">
<path d="M0.464996 13.2827C0.714634 13.5325 1.05317 13.6729 1.40616 13.6729C1.75915 13.6729 2.09768 13.5325 2.34732 13.2827L6.73099 8.89353L11.1146 13.2827C11.3657 13.5255 11.702 13.6598 12.051 13.6568C12.4001 13.6537 12.7339 13.5136 12.9808 13.2664C13.2276 13.0193 13.3676 12.685 13.3706 12.3355C13.3736 11.9861 13.2395 11.6494 12.997 11.398L8.61331 7.00885L12.997 2.61971C13.1241 2.49676 13.2255 2.34968 13.2953 2.18707C13.3651 2.02445 13.4018 1.84955 13.4033 1.67258C13.4049 1.4956 13.3712 1.32009 13.3042 1.15628C13.2373 0.992477 13.1385 0.84366 13.0135 0.718513C12.8885 0.593366 12.7399 0.494397 12.5763 0.427379C12.4127 0.360361 12.2374 0.326637 12.0606 0.328175C11.8838 0.329713 11.7092 0.366482 11.5468 0.436336C11.3843 0.506191 11.2374 0.607732 11.1146 0.735034L6.73099 5.12417L2.34732 0.735034C2.22452 0.607732 2.07763 0.506191 1.91522 0.436336C1.75281 0.366482 1.57812 0.329713 1.40137 0.328175C1.22461 0.326637 1.04932 0.360361 0.885718 0.427379C0.722117 0.494397 0.573485 0.593366 0.448495 0.718513C0.323504 0.84366 0.224658 0.992477 0.157724 1.15628C0.0907896 1.32009 0.057108 1.4956 0.058644 1.67258C0.06018 1.84955 0.096903 2.02445 0.16667 2.18707C0.236437 2.34968 0.337852 2.49676 0.464996 2.61971L4.84866 7.00885L0.464996 11.398C0.215433 11.6479 0.0752362 11.9869 0.0752362 12.3403C0.0752362 12.6938 0.215433 13.0327 0.464996 13.2827Z" fill="#F5381E"/>
</svg>
